<?xml version="1.0" encoding="iso-8859-1"?>
<!-- Uploaded to: SVG Repo, www.svgrepo.com, Generator: SVG Repo Mixer Tools -->
<svg height="800px" width="800px" version="1.1" id="Layer_1" xmlns="http://www.w3.org/2000/svg" xmlns:xlink="http://www.w3.org/1999/xlink" 
	 viewBox="0 0 512 512" xml:space="preserve">
<g>
	<path style="fill:#2BA5F7;" d="M196.644,477.385L196.644,477.385c-27.102-27.102-32.404-69.12-12.885-102.105L256,253.202
		l72.24,122.077c19.52,32.985,14.217,75.003-12.885,102.105l0,0C282.575,510.167,229.426,510.167,196.644,477.385z"/>
	<path style="fill:#2BA5F7;" d="M352.259,234.256L352.259,234.256c-27.102-27.102-32.404-69.12-12.885-102.105l72.24-122.077
		l72.24,122.077c19.52,32.985,14.217,75.003-12.885,102.105l0,0C438.189,267.037,385.041,267.037,352.259,234.256z"/>
	<path style="fill:#2BA5F7;" d="M41.028,234.256L41.028,234.256c-27.102-27.102-32.404-69.12-12.885-102.105l72.24-122.077
		l72.24,122.077c19.52,32.985,14.217,75.003-12.885,102.105l0,0C126.96,267.037,73.81,267.037,41.028,234.256z"/>
</g>
<g>
	<path style="fill:#2197D8;" d="M100.387,258.842c-21.49,0-42.967-8.193-59.353-24.579v-0.013
		c-27.104-27.091-32.41-69.118-12.894-102.092L100.387,10.08L69.146,132.158c-8.435,32.974-6.138,75.001,5.574,102.092v0.013
		C81.798,250.649,91.092,258.842,100.387,258.842z"/>
	<path style="fill:#2197D8;" d="M411.622,258.842c-21.49,0-42.967-8.193-59.353-24.579v-0.013
		c-27.104-27.091-32.41-69.118-12.894-102.092L411.622,10.08l-31.241,122.077c-8.435,32.974-6.138,75.001,5.574,102.092v0.013
		C393.033,250.649,402.328,258.842,411.622,258.842z"/>
	<path style="fill:#2197D8;" d="M256.007,501.965c-21.49,0-42.967-8.193-59.353-24.579v-0.013
		c-27.104-27.091-32.41-69.118-12.894-102.092l72.247-122.077l-31.241,122.077c-8.435,32.974-6.138,75.001,5.574,102.092v0.013
		C237.418,493.772,246.712,501.965,256.007,501.965z"/>
</g>
<g>
	<path style="fill:#FFFFFF;" d="M447.227,220.586c-2.577,0-5.155-0.983-7.123-2.95c-3.934-3.934-3.934-10.313,0-14.247
		c13.015-13.015,15.558-33.169,6.184-49.008L431.1,128.715c-2.833-4.788-1.249-10.967,3.539-13.799
		c4.787-2.83,10.967-1.249,13.799,3.539l15.188,25.666c14.061,23.76,10.247,53.99-9.276,73.515
		C452.383,219.602,449.806,220.586,447.227,220.586z"/>
	<path style="fill:#FFFFFF;" d="M291.613,463.716c-2.577,0-5.155-0.983-7.123-2.95c-3.934-3.934-3.934-10.313,0-14.247
		c13.015-13.015,15.558-33.169,6.184-49.008l-15.188-25.666c-2.833-4.788-1.249-10.967,3.539-13.799
		c4.788-2.83,10.967-1.249,13.799,3.539l15.188,25.666c14.061,23.76,10.247,53.99-9.276,73.515
		C296.768,462.733,294.19,463.716,291.613,463.716z"/>
	<path style="fill:#FFFFFF;" d="M135.997,220.586c-2.577,0-5.155-0.983-7.123-2.95c-3.934-3.934-3.934-10.313,0-14.247
		c13.015-13.015,15.558-33.169,6.184-49.008l-15.188-25.665c-2.833-4.788-1.249-10.967,3.539-13.799
		c4.79-2.83,10.967-1.249,13.799,3.539l15.188,25.666c14.061,23.76,10.247,53.99-9.276,73.515
		C141.154,219.602,138.576,220.586,135.997,220.586z"/>
	<circle style="fill:#FFFFFF;" cx="114.129" cy="99.224" r="10.074"/>
	<circle style="fill:#FFFFFF;" cx="425.236" cy="99.224" r="10.074"/>
	<circle style="fill:#FFFFFF;" cx="269.728" cy="342.338" r="10.074"/>
</g>
<g>
	<path style="fill:#333333;" d="M181.295,127.02L109.054,4.944C107.241,1.879,103.945,0,100.386,0c-3.559,0-6.855,1.879-8.67,4.944
		L19.475,127.02c-21.873,36.963-15.939,83.989,14.432,114.358c17.756,17.758,41.366,27.537,66.478,27.537
		s48.721-9.779,66.478-27.537C197.234,211.009,203.168,163.983,181.295,127.02z M48.151,227.132
		c-23.861-23.862-28.524-60.81-11.337-89.852l63.572-107.427l63.572,107.427c17.185,29.043,12.523,65.991-11.339,89.852
		c-13.952,13.952-32.503,21.635-52.233,21.635C80.654,248.769,62.105,241.085,48.151,227.132"/>
	<path style="fill:#333333;" d="M492.526,127.02L420.285,4.943C418.471,1.879,415.176,0,411.615,0s-6.855,1.879-8.67,4.944
		l-72.24,122.077c-21.873,36.963-15.939,83.989,14.432,114.358c18.328,18.328,42.404,27.493,66.478,27.493
		c24.076,0,48.151-9.164,66.48-27.493C508.463,211.009,514.397,163.983,492.526,127.02z M463.848,227.132
		c-13.952,13.952-32.501,21.635-52.233,21.635c-19.731,0-38.281-7.684-52.233-21.635c-23.862-23.862-28.524-60.81-11.339-89.852
		l63.572-107.427l63.572,107.427C492.373,166.323,487.709,203.271,463.848,227.132z"/>
	<path style="fill:#333333;" d="M264.67,248.073c-1.813-3.064-5.109-4.944-8.67-4.944s-6.855,1.879-8.67,4.944l-72.24,122.076
		c-21.873,36.963-15.939,83.989,14.431,114.358C207.848,502.836,231.924,512,256,512c24.074,0,48.15-9.164,66.478-27.493
		c30.37-30.37,36.304-77.397,14.431-114.358L264.67,248.073z M308.233,470.262c-28.802,28.799-75.665,28.801-104.466,0
		c-23.862-23.862-28.524-60.81-11.337-89.852L256,272.984l63.572,107.427C336.757,409.452,332.095,446.4,308.233,470.262z"/>
</g>
</svg>